<!-- icon666.com - MILLIONS vector ICONS FREE --><svg version="1.1" id="Layer_1" xmlns="http://www.w3.org/2000/svg" xmlns:xlink="http://www.w3.org/1999/xlink" x="0px" y="0px" viewBox="0 0 512 512" style="enable-background:new 0 0 512 512;" xml:space="preserve"><g><g><path d="M438.857,0H73.143c-14.629,0-25.6,10.971-25.6,25.6v460.8c0,14.629,10.971,25.6,25.6,25.6h365.714 c14.629,0,25.6-10.971,25.6-25.6V25.6C464.457,10.971,453.486,0,438.857,0z M427.886,475.429H84.114V36.571h343.771V475.429z"></path></g></g><g><g><path d="M398.629,64H113.371c-10.971,0-18.286,7.314-18.286,18.286v78.628c0,10.971,7.314,18.286,18.286,18.286h285.257 c10.971,0,18.286-7.314,18.286-18.286V82.286C416.914,71.315,409.6,64,398.629,64z M380.343,142.63H131.657c0,0,0-42.058,0-42.058 h248.686V142.63z"></path></g></g><g><g><path d="M224.914,332.8H113.371c-10.971,0-18.286,7.314-18.286,18.286v64c0,9.142,7.314,18.286,18.286,18.286h111.542 c10.971,0,18.286-7.314,18.286-18.286v-64C243.2,340.114,235.885,332.8,224.914,332.8z M206.628,396.8h-74.971v-27.429h74.971 V396.8z"></path></g></g><g><g><path d="M398.629,206.629H113.371c-10.971,0-18.286,7.314-18.286,18.286s7.314,18.286,18.286,18.286h285.257 c10.971,0,18.286-7.314,18.286-18.286S409.6,206.629,398.629,206.629z"></path></g></g><g><g><path d="M398.629,268.8H113.371c-10.971,0-18.286,7.314-18.286,18.286c0,10.97,7.314,18.286,18.286,18.286h285.257 c10.971,0,18.286-7.314,18.286-18.286S409.6,268.8,398.629,268.8z"></path></g></g><g><g><path d="M398.629,332.8H287.085c-10.971,0-18.286,7.314-18.286,18.286s7.314,18.286,18.286,18.286h111.543 c10.971,0,18.286-7.314,18.286-18.286S409.6,332.8,398.629,332.8z"></path></g></g><g><g><path d="M398.629,396.8H287.085c-10.971,0-18.286,7.314-18.286,18.286s7.314,18.286,18.286,18.286h111.543 c10.971,0,18.286-7.314,18.286-18.286S409.6,396.8,398.629,396.8z"></path></g></g></svg>