<!-- icon666.com - MILLIONS vector ICONS FREE --><svg version="1.1" id="Capa_1" xmlns="http://www.w3.org/2000/svg" xmlns:xlink="http://www.w3.org/1999/xlink" x="0px" y="0px" viewBox="0 0 426.667 426.667" style="enable-background:new 0 0 426.667 426.667;" xml:space="preserve"><g><g><g><path d="M405.333,106.667H170.667c-10.667,0-21.333,8.533-21.333,21.333v170.667C149.333,309.333,160,320,170.667,320h128 l106.667,106.667V320c10.667,0,21.333-10.667,21.333-21.333V128C426.667,115.2,416,106.667,405.333,106.667z" fill="#000000" style="fill: rgb(99, 99, 99);"></path><path d="M256,21.333C256,8.533,245.333,0,234.667,0H21.333C10.667,0,0,8.533,0,21.333v149.333C0,181.333,10.667,192,21.333,192 v64l64-64h21.333V85.333C106.667,72.533,117.333,64,128,64h128V21.333z" fill="#000000" style="fill: rgb(99, 99, 99);"></path></g></g></g></svg>